<?xml version="1.0" encoding="UTF-8"?>
<!DOCTYPE svg PUBLIC "-//W3C//DTD SVG 1.1//EN" "http://www.w3.org/Graphics/SVG/1.1/DTD/svg11.dtd">
<!-- Creator: CorelDRAW 2018 (64 Bit Versão de avaliação) -->
<svg xmlns="http://www.w3.org/2000/svg" xml:space="preserve" width="2.54mm" height="2.54mm" version="1.1" style="shape-rendering:geometricPrecision; text-rendering:geometricPrecision; image-rendering:optimizeQuality; fill-rule:evenodd; clip-rule:evenodd"
viewBox="0 0 16.5 16.5"
 xmlns:xlink="http://www.w3.org/1999/xlink">
 <defs>
  <style type="text/css">
   <![CDATA[
    .fil0 {fill:#D90205}
    .fil1 {fill:white;fill-rule:nonzero}
   ]]>
  </style>
 </defs>
 <g id="Camada_x0020_1">
  <metadata id="CorelCorpID_0Corel-Layer"/>
  <g id="_3159616038048">
   <circle class="fil0" cx="8.25" cy="8.25" r="8.25"/>
   <path class="fil1" d="M9.2 12.67c0,0.52 -0.42,0.95 -0.95,0.95 -0.52,0 -0.95,-0.42 -0.95,-0.95l0 -6.55 -2.94 2.94c-0.37,0.37 -0.97,0.37 -1.34,0 -0.37,-0.37 -0.37,-0.97 0,-1.34l4.55 -4.55 0.01 -0.01 0 -0 0.01 -0.01 0 -0 0 -0 0.01 -0.01 0.01 -0 0 -0 0.01 -0.01 0 -0 0 -0 0.01 -0.01 0.01 -0 0 -0 0.01 -0.01 0 -0 0 -0 0.01 -0.01 0 -0 0.01 -0 0.01 -0.01 0 -0 0.01 -0 0.01 -0.01 0 -0 0.01 -0 0.01 -0.01 0 -0 0.01 -0 0.01 -0.01 0 -0 0.01 -0 0.01 -0.01 0 -0 0.01 -0 0.01 -0.01 0 -0 0.01 -0 0.01 -0.01 0 -0 0.01 -0 0.01 -0.01 0 -0 0.01 -0 0.01 -0.01 0 -0 0.01 -0 0.01 -0 0 -0 0.01 -0 0.01 -0 0 -0 0.01 -0 0.01 -0 0 -0 0.01 -0 0.01 -0 0 -0 0.01 -0 0.01 -0 0 -0 0.01 -0 0.01 -0 0 -0 0.01 -0 0.01 -0 0 -0 0.01 -0 0.01 -0 0 0 0.01 -0 0.01 -0 0 0 0.01 -0 0.01 -0 0 -0 0.01 -0 0.01 -0 0 0 0.01 -0 0.01 -0 0 0 0.01 -0 0.01 -0 0 0 0.01 -0 0.01 -0 0 -0 0.01 -0 0.01 -0 0 0 0.02 -0 0 0 0.01 -0 0.01 0 0.01 0 0.01 0 0 0 0.02 0 0 0 0.01 0 0.01 0 0 0 0.01 0 0.01 0 0 0 0.01 0 0.01 0 0 0 0.01 0 0.01 0 0 0 0.01 0 0.01 0 0 0 0.01 0 0.01 0 0 0 0.01 0 0.01 0 0 0 0.01 0 0.01 0 0 0 0.01 0 0.01 0 0 0 0.01 0 0.01 0 0 0 0.01 0 0.01 0 0 0 0.01 0 0.01 0 0 0 0.01 0 0.01 0 0 0 0.01 0 0.01 0 0 0 0.01 0 0.01 0 0 0 0.01 0.01 0.01 0 0 0 0.01 0.01 0.01 0 0 0 0.01 0.01 0.01 0 0 0 0.01 0.01 0.01 0 0 0 0.01 0.01 0.01 0 0 0 0.01 0.01 0.01 0 0 0 0.01 0.01 0.01 0 0 0 0.01 0.01 0.01 0 0 0 0.01 0.01 0.01 0 0 0 0.01 0.01 0 0 0 0 0.01 0.01 0 0 0.01 0 0.01 0.01 0 0 0 0 0.01 0.01 0 0 0.01 0 0.01 0.01 0 0 0 0 0.01 0.01 0 0 0.01 0.01 4.55 4.55c0.37,0.37 0.37,0.97 0,1.34 -0.37,0.37 -0.97,0.37 -1.34,0l-2.94 -2.94 0 6.55z"/>
  </g>
 </g>
</svg>
