<?xml version="1.0" encoding="UTF-8"?>
<!DOCTYPE svg PUBLIC "-//W3C//DTD SVG 1.1//EN" "http://www.w3.org/Graphics/SVG/1.1/DTD/svg11.dtd">
<!-- Creator: CorelDRAW 2018 (64 Bit Versão de avaliação) -->
<svg xmlns="http://www.w3.org/2000/svg" xml:space="preserve" width="7.9587mm" height="7.9591mm" version="1.1" style="shape-rendering:geometricPrecision; text-rendering:geometricPrecision; image-rendering:optimizeQuality; fill-rule:evenodd; clip-rule:evenodd"
viewBox="0 0 74.16 74.16"
 xmlns:xlink="http://www.w3.org/1999/xlink">
 <defs>
  <style type="text/css">
   <![CDATA[
    .fil0 {fill:#D90205;fill-rule:nonzero}
   ]]>
  </style>
 </defs>
 <g id="Camada_x0020_1">
  <metadata id="CorelCorpID_0Corel-Layer"/>
  <path class="fil0" d="M14.24 23.81c-1.59,0 -3.19,-1.59 -3.19,-3.19 0,-1.59 1.59,-3.19 3.19,-3.19l45.67 0c1.59,0 3.19,1.59 3.19,3.19 0,1.59 -1.59,3.19 -3.19,3.19l-45.67 0zm-1.59 -23.81l24.36 -0 24.19 -0 0 0 0.31 0c3.49,0.01 6.66,1.42 8.94,3.71 2.29,2.29 3.7,5.45 3.7,8.94l0 0.31 0 48.55c-0,3.49 -1.42,6.65 -3.71,8.94 -2.29,2.29 -5.45,3.71 -8.94,3.71l-0.11 0 -0.21 0 -48.23 0 -0 0 -0.31 0c-3.49,-0 -6.65,-1.42 -8.94,-3.71 -2.29,-2.29 -3.7,-5.45 -3.7,-8.94l0 -0.1 -0 -0.21 -0 -48.23 0 -0 0 -0.31c0,-3.49 1.42,-6.66 3.71,-8.95 2.29,-2.29 5.45,-3.7 8.94,-3.71zm48.55 2.86l-48.23 0.01c-2.79,0 -5.32,1.13 -7.15,2.96 -1.83,1.83 -2.96,4.36 -2.97,7.14l0.01 48.23c0.01,2.79 1.14,5.32 2.96,7.15 1.83,1.83 4.35,2.96 7.14,2.97l48.23 -0.01c2.79,-0.01 5.31,-1.14 7.14,-2.96 1.83,-1.83 2.97,-4.35 2.97,-7.14l-0 -48.23c-0.01,-2.79 -1.14,-5.32 -2.96,-7.15 -1.83,-1.83 -4.35,-2.96 -7.14,-2.96zm-46.95 53.88c-1.59,0 -3.19,-1.59 -3.19,-3.19 0,-1.59 1.59,-3.19 3.19,-3.19l45.67 0c1.59,0 3.19,1.59 3.19,3.19 0,1.59 -1.59,3.19 -3.19,3.19l-45.67 0zm0 -16.46c-1.59,0 -3.19,-1.59 -3.19,-3.19 0,-1.59 1.59,-3.19 3.19,-3.19l45.67 0c1.59,0 3.19,1.59 3.19,3.19 0,1.59 -1.59,3.19 -3.19,3.19l-45.67 0z"/>
 </g>
</svg>
