<?xml version="1.0" encoding="UTF-8"?>
<!DOCTYPE svg PUBLIC "-//W3C//DTD SVG 1.1//EN" "http://www.w3.org/Graphics/SVG/1.1/DTD/svg11.dtd">
<!-- Creator: CorelDRAW 2018 (64 Bit Versão de avaliação) -->
<svg xmlns="http://www.w3.org/2000/svg" xml:space="preserve" width="38.0998mm" height="38.0998mm" version="1.1" style="shape-rendering:geometricPrecision; text-rendering:geometricPrecision; image-rendering:optimizeQuality; fill-rule:evenodd; clip-rule:evenodd"
viewBox="0 0 5141.66 5141.66"
 xmlns:xlink="http://www.w3.org/1999/xlink">
 <defs>
  <style type="text/css">
   <![CDATA[
    .fil6 {fill:black}
    .fil4 {fill:#AAB2BD}
    .fil5 {fill:#D90205}
    .fil3 {fill:#FE3E3E}
    .fil1 {fill:#FFCC00}
    .fil0 {fill:#FFDF61}
    .fil2 {fill:white}
   ]]>
  </style>
 </defs>
 <g id="Camada_x0020_1">
  <metadata id="CorelCorpID_0Corel-Layer"/>
  <path class="fil0" d="M3897.71 2570.83l0 2156.18c0,183.28 -148.45,331.73 -331.73,331.73l-3151.33 0c-183.28,0 -331.73,-148.45 -331.73,-331.73l0 -4146.5c0,-183.28 148.45,-331.73 331.73,-331.73l663.44 0 0 331.73 -580.53 0c-45.6,0 -82.93,37.31 -82.93,82.93l0 3980.64c0,45.61 37.33,82.93 82.93,82.93l2404.98 0 663.44 -663.44 0 -1161.02 331.73 -331.71z"/>
  <polygon class="fil1" points="1575.67,248.79 2404.98,248.79 2404.98,580.51 1575.67,580.51 "/>
  <path class="fil1" d="M3897.71 872.43c-179.96,120.24 -304.36,315.96 -327.57,542.36l-4.14 -0.84 0 -750.51c0,-45.61 -37.33,-82.93 -82.94,-82.93l-580.51 0 0 -331.73 663.44 0c183.28,0 331.73,148.45 331.73,331.73l0 291.92z"/>
  <path class="fil2" d="M3483.06 580.51l-2985.49 0c-45.6,0 -82.93,37.31 -82.93,82.93l0 3980.64c0,45.61 37.33,82.93 82.93,82.93l2404.98 0 0 -663.44 663.44 0 0 -3400.13c0,-45.61 -37.31,-82.93 -82.93,-82.93z"/>
  <path class="fil3" d="M2902.55 580.51l0 82.93c0,45.61 -37.31,82.93 -82.93,82.93l-331.71 0c-45.61,0 -82.94,-37.31 -82.94,-82.93l0 -82.94 0 -331.71 0 -82.93c0,-45.61 37.33,-82.94 82.94,-82.94l331.71 0.01c45.61,0 82.93,37.31 82.93,82.93l0 82.93 0 331.73z"/>
  <path class="fil3" d="M1575.67 580.51l0 82.93c0,45.61 -37.31,82.93 -82.93,82.93l-331.71 0c-45.61,0 -82.93,-37.31 -82.93,-82.93l0 -82.94 0 -331.71 0 -82.93c0,-45.61 37.31,-82.94 82.93,-82.94l331.71 0.01c45.61,0 82.93,37.31 82.93,82.93l0 82.93 0 331.73z"/>
  <polygon class="fil3" points="3565.99,4063.57 2902.55,4727.01 2902.55,4063.57 "/>
  <polygon class="fil1" points="746.37,3731.86 1078.1,3731.86 1078.1,4063.57 746.37,4063.57 "/>
  <polygon class="fil1" points="746.37,3068.42 1078.1,3068.42 1078.1,3400.13 746.37,3400.13 "/>
  <polygon class="fil1" points="746.37,2404.98 1078.1,2404.98 1078.1,2736.69 746.37,2736.69 "/>
  <polygon class="fil1" points="746.37,1741.52 1078.1,1741.52 1078.1,2073.25 746.37,2073.25 "/>
  <polygon class="fil1" points="746.37,1078.1 1078.1,1078.1 1078.1,1409.81 746.37,1409.81 "/>
  <path class="fil4" d="M2322.03 4146.5l-724.8 241.34c-14.1,4.97 -29.03,7.46 -44.78,7.46 -78.79,0 -142.64,-63.86 -142.64,-142.64 0,-15.76 2.48,-30.69 7.46,-44.78l241.32 -724.82 331.73 331.73 331.71 331.71z"/>
  <path class="fil0" d="M4233.58 2234.96l-335.87 335.87 -331.73 331.71 -1243.95 1243.95 -331.71 -331.71 1794.61 -1794.61c116.92,117.76 274.49,196.54 448.65,214.79z"/>
  <path class="fil1" d="M3784.93 2020.17l-1794.61 1794.61 -331.73 -331.73 1911.55 -1911.54c18.25,174.16 97.02,331.71 214.79,448.65z"/>
  <path class="fil5" d="M4312.37 746.37c412.16,0 746.37,334.21 746.37,746.37 0,412.16 -334.21,746.37 -746.37,746.37 -26.55,0 -53.08,-1.66 -78.79,-4.14 -174.16,-18.25 -331.73,-97.03 -448.65,-214.79 -117.77,-116.94 -196.54,-274.49 -214.79,-448.65 -2.5,-25.71 -4.16,-52.25 -4.16,-78.79 0,-26.53 1.66,-52.24 4.16,-77.95 23.21,-226.41 147.61,-422.12 327.57,-542.37 118.58,-79.61 261.23,-126.05 414.64,-126.05l0.01 0z"/>
  <polygon class="fil6" points="4668.39,1185.32 4146.5,1707.19 3958.56,1519.26 3841.29,1636.52 4146.5,1941.72 4785.65,1302.58 "/>
  <path class="fil6" d="M4312.37 663.44c-117.94,0 -230.05,25.13 -331.73,69.74l0 -152.67c0,-228.65 -186.02,-414.66 -414.66,-414.66l-580.51 0c0,-91.47 -74.39,-165.86 -165.86,-165.86l-331.71 0c-91.48,0 -165.87,74.39 -165.87,165.86l-663.43 0c0,-91.47 -74.4,-165.86 -165.87,-165.86l-331.71 0c-91.47,0 -165.86,74.39 -165.86,165.86l-580.51 0c-228.65,0 -414.66,186.02 -414.66,414.66l0 4146.5c0,228.64 186.02,414.66 414.66,414.66l3151.33 0c228.65,0 414.66,-186.02 414.66,-414.66l0 -2121.85 285.45 -285.44c15.43,0.82 30.67,2.32 46.28,2.32 457.27,0 829.3,-372.02 829.3,-829.31 0,-457.27 -372.02,-829.3 -829.3,-829.3zm-746.38 -331.73c137.18,0 248.8,111.63 248.8,248.8l0 250.36c-62.86,47.35 -118.68,103.33 -165.86,166.36l0 -333.79c0,-91.47 -74.4,-165.87 -165.87,-165.87l-497.58 0 0 -165.86 580.51 0zm-1871.14 3304.85l473.7 473.7 -596.94 198.95c-38.47,13.02 -78.95,-17.41 -78.87,-56.64 0,-6.3 1.08,-12.94 2.98,-18.91l199.12 -597.1zm81.03 -153.51l1744.42 -1744.44c32.01,102.83 83.6,197.13 150.35,278.57l-1680.32 1680.32 -214.45 -214.45zm712.04 -3317.2l331.71 0 0.08 497.58 -331.79 0 0 -497.58zm-165.87 165.86l0 165.86 -663.43 0 0 -165.86 663.43 0zm-1161.01 -165.86l331.71 0 0.08 497.58 -331.79 0 0 -497.58zm331.71 663.44c91.47,0 165.86,-74.39 165.86,-165.86l663.44 0c0,91.47 74.4,165.86 165.87,165.86l331.71 0c91.47,0 165.86,-74.39 165.86,-165.86l497.58 0 0 750.11 3.98 0c-2.48,26.11 -3.98,52.5 -3.98,79.19 0,15.59 1.5,30.85 2.32,46.28l-1899.25 1899.27 -247.8 743.22c-7.54,23.05 -11.44,46.94 -11.44,71.07 0,124.4 101.25,225.65 225.65,225.65 24.13,0 48.02,-3.9 71.32,-11.61l742.97 -247.64 1116.23 -1116.23 0 877.89 -663.44 0 0 663.44 -2322.05 0 0 -3980.64 497.58 0c0,91.47 74.4,165.86 165.86,165.86l331.73 0zm1873.06 3317.2l-380.31 380.32 0 -380.32 380.31 0zm448.99 580.51c0,137.17 -111.62,248.8 -248.8,248.8l-3151.33 0c-137.18,0 -248.8,-111.63 -248.8,-248.8l0 -4146.5c0,-137.17 111.62,-248.8 248.8,-248.8l580.5 0 0 165.86 -497.58 0c-91.47,0 -165.86,74.4 -165.86,165.87l0 3980.64c0,91.47 74.4,165.86 165.86,165.86l2439.32 0 712.04 -712.04 0 -1161.01 165.86 -165.87 0 1955.99zm-1492.75 -697.77l-214.45 -214.45 1680.25 -1680.33c81.43,66.68 175.72,118.34 278.56,150.35l-1744.36 1744.44zm1990.33 -1873.06c-365.82,0 -663.44,-297.64 -663.44,-663.44 0,-365.8 297.62,-663.44 663.44,-663.44 365.8,0 663.44,297.64 663.44,663.44 0,365.8 -297.64,663.44 -663.44,663.44z"/>
  <path class="fil6" d="M663.44 1492.74l497.58 0 0 -497.58 -497.58 0 0 497.58zm165.86 -331.71l165.86 0 0 165.86 -165.86 0 0 -165.86z"/>
  <path class="fil6" d="M663.44 2156.18l497.58 0 0 -497.57 -497.58 0 0 497.57zm165.86 -331.71l165.86 0 0 165.86 -165.86 0 0 -165.86z"/>
  <path class="fil6" d="M663.44 2819.62l497.58 0 0 -497.58 -497.58 0 0 497.58zm165.86 -331.71l165.86 0 0 165.86 -165.86 0 0 -165.86z"/>
  <path class="fil6" d="M663.44 3483.06l497.58 0 0 -497.58 -497.58 0 0 497.58zm165.86 -331.71l165.86 0 0 165.86 -165.86 0 0 -165.86z"/>
  <path class="fil6" d="M663.44 4146.5l497.58 0 0 -497.57 -497.58 0 0 497.57zm165.86 -331.71l165.86 0 0 165.86 -165.86 0 0 -165.86z"/>
  <polygon class="fil6" points="1326.88,995.15 3317.2,995.15 3317.2,1161.01 1326.88,1161.02 "/>
  <polygon class="fil6" points="1326.88,1326.88 3317.2,1326.88 3317.2,1492.74 1326.88,1492.74 "/>
  <polygon class="fil6" points="1326.88,1658.61 2322.03,1658.61 2322.03,1824.46 1326.88,1824.46 "/>
  <polygon class="fil6" points="1326.88,1990.32 2322.03,1990.32 2322.03,2156.18 1326.88,2156.18 "/>
  <polygon class="fil6" points="1326.88,2322.03 2156.18,2322.03 2156.18,2487.9 1326.88,2487.9 "/>
  <polygon class="fil6" points="1326.88,2653.76 2156.18,2653.76 2156.18,2819.62 1326.88,2819.62 "/>
 </g>
</svg>
