<?xml version="1.0" encoding="UTF-8"?>
<!DOCTYPE svg PUBLIC "-//W3C//DTD SVG 1.1//EN" "http://www.w3.org/Graphics/SVG/1.1/DTD/svg11.dtd">
<!-- Creator: CorelDRAW 2018 (64 Bit Versão de avaliação) -->
<svg xmlns="http://www.w3.org/2000/svg" xml:space="preserve" width="8.4666mm" height="8.4667mm" version="1.1" style="shape-rendering:geometricPrecision; text-rendering:geometricPrecision; image-rendering:optimizeQuality; fill-rule:evenodd; clip-rule:evenodd"
viewBox="0 0 71.31 71.31"
 xmlns:xlink="http://www.w3.org/1999/xlink">
 <defs>
  <style type="text/css">
   <![CDATA[
    .fil0 {fill:black}
   ]]>
  </style>
 </defs>
 <g id="Camada_x0020_1">
  <metadata id="CorelCorpID_0Corel-Layer"/>
  <path id="ic_perm_identity_24px" class="fil0" d="M35.66 6.95c2.88,0 5.49,1.17 7.39,3.06 1.89,1.89 3.06,4.5 3.06,7.39 0,2.88 -1.17,5.5 -3.06,7.39 -1.89,1.89 -4.5,3.06 -7.39,3.06 -2.88,0 -5.5,-1.17 -7.39,-3.06 -1.89,-1.89 -3.06,-4.5 -3.06,-7.39 0,-2.88 1.17,-5.5 3.06,-7.39 1.89,-1.89 4.51,-3.06 7.39,-3.06zm0 41.08c6.13,0 12.4,1.34 17.47,3.09 6.58,2.27 11.23,5.4 11.23,7.36l0 5.88 -57.42 0 0 -5.88c0,-1.97 4.65,-5.1 11.23,-7.36 5.07,-1.75 11.35,-3.09 17.47,-3.09zm0 23.28l35.66 0 0 -12.83c0,-4.75 -4.15,-8.56 -9.82,-11.4 -7.99,-3.99 -18.9,-6 -25.84,-6 -6.93,0 -17.85,2.01 -25.84,6 -5.67,2.83 -9.82,6.65 -9.82,11.4l0 12.83 35.66 0zm-12.3 -41.62c3.15,3.15 7.5,5.09 12.3,5.09 4.8,0 9.15,-1.95 12.3,-5.09 3.15,-3.15 5.1,-7.5 5.1,-12.3 0,-4.8 -1.95,-9.16 -5.09,-12.3 -3.15,-3.15 -7.5,-5.09 -12.3,-5.09 -4.8,0 -9.15,1.95 -12.3,5.1 -3.15,3.15 -5.1,7.5 -5.1,12.3 0,4.81 1.95,9.15 5.09,12.3z"/>
 </g>
</svg>
