<?xml version="1.0" encoding="UTF-8"?>
<!DOCTYPE svg PUBLIC "-//W3C//DTD SVG 1.1//EN" "http://www.w3.org/Graphics/SVG/1.1/DTD/svg11.dtd">
<!-- Creator: CorelDRAW 2018 (64 Bit Versão de avaliação) -->
<svg xmlns="http://www.w3.org/2000/svg" xml:space="preserve" width="8.4666mm" height="6.7298mm" version="1.1" style="shape-rendering:geometricPrecision; text-rendering:geometricPrecision; image-rendering:optimizeQuality; fill-rule:evenodd; clip-rule:evenodd"
viewBox="0 0 57.83 45.97"
 xmlns:xlink="http://www.w3.org/1999/xlink">
 <defs>
  <style type="text/css">
   <![CDATA[
    .fil0 {fill:white;fill-rule:nonzero}
   ]]>
  </style>
 </defs>
 <g id="Camada_x0020_1">
  <metadata id="CorelCorpID_0Corel-Layer"/>
  <path class="fil0" d="M7.82 0l42.2 0c2.03,0 3.89,0.79 5.28,2.07l0.02 0.02 0.02 0.02 0.04 0.04 0 0.01 0.04 0.03 0.1 0.1 0.03 0.03 0.04 0.04 0 0.01c1.39,1.42 2.24,3.34 2.24,5.44l0 30.35c0,2.14 -0.89,4.09 -2.3,5.51 -1.42,1.42 -3.38,2.3 -5.52,2.3l-42.2 0c-2.14,0 -4.09,-0.88 -5.51,-2.29 -1.42,-1.42 -2.31,-3.38 -2.31,-5.52l0 -30.35c0,-2.11 0.87,-4.03 2.24,-5.44l0.04 -0.04 0.02 -0.02 0.11 -0.11 0.03 -0.03 0.01 -0.01 0.09 -0.08 0.04 -0.03 0.01 -0c1.39,-1.27 3.23,-2.04 5.24,-2.04zm1.14 4.7l19.96 15.32 19.96 -15.32 -39.92 0zm44.14 2.68l-22.72 17.44c-0.82,0.65 -2.02,0.69 -2.88,0.02l-22.75 -17.47c-0.02,0.14 -0.03,0.28 -0.03,0.42l0 30.35c0,0.85 0.35,1.64 0.91,2.2 0.56,0.56 1.35,0.91 2.2,0.91l42.2 0c0.85,0 1.64,-0.35 2.2,-0.91 0.56,-0.56 0.91,-1.34 0.91,-2.2l0 -30.35c0,-0.14 -0.01,-0.29 -0.03,-0.42z"/>
 </g>
</svg>
