<?xml version="1.0" encoding="UTF-8"?>
<!DOCTYPE svg PUBLIC "-//W3C//DTD SVG 1.1//EN" "http://www.w3.org/Graphics/SVG/1.1/DTD/svg11.dtd">
<!-- Creator: CorelDRAW 2018 (64 Bit Versão de avaliação) -->
<svg xmlns="http://www.w3.org/2000/svg" xml:space="preserve" width="8.4667mm" height="8.4668mm" version="1.1" style="shape-rendering:geometricPrecision; text-rendering:geometricPrecision; image-rendering:optimizeQuality; fill-rule:evenodd; clip-rule:evenodd"
viewBox="0 0 48.14 48.14"
 xmlns:xlink="http://www.w3.org/1999/xlink">
 <defs>
  <style type="text/css">
   <![CDATA[
    .fil0 {fill:black}
   ]]>
  </style>
 </defs>
 <g id="Camada_x0020_1">
  <metadata id="CorelCorpID_0Corel-Layer"/>
  <path id="ic_phone_24px" class="fil0" d="M9.68 20.83c3.87,7.58 10.04,13.75 17.62,17.63l5.88 -5.88c0.5,-0.5 1.18,-0.79 1.88,-0.79 0.29,0 0.58,0.05 0.85,0.14 3.07,1.01 6.29,1.52 9.52,1.52 0.01,0 0.02,0 0.03,0 1.47,0 2.67,1.2 2.67,2.67l0 9.33c-0,1.47 -1.2,2.67 -2.67,2.67 0,0 -0,0 -0,0 -25.1,0 -45.46,-20.36 -45.46,-45.46 0,0 0,-0.01 0,-0.01 0,-1.47 1.2,-2.67 2.67,-2.67l9.36 -0c1.48,0 2.67,1.2 2.67,2.67 0,0.01 0,0.03 0,0.05 0,3.23 0.52,6.44 1.52,9.5 0.08,0.27 0.13,0.54 0.13,0.82 0,0.72 -0.29,1.4 -0.8,1.91l-5.88 5.89z"/>
 </g>
</svg>
