<?xml version="1.0" encoding="UTF-8"?>
<!DOCTYPE svg PUBLIC "-//W3C//DTD SVG 1.1//EN" "http://www.w3.org/Graphics/SVG/1.1/DTD/svg11.dtd">
<!-- Creator: CorelDRAW 2018 (64 Bit Versão de avaliação) -->
<svg xmlns="http://www.w3.org/2000/svg" xml:space="preserve" width="25.4mm" height="11.7134mm" version="1.1" style="shape-rendering:geometricPrecision; text-rendering:geometricPrecision; image-rendering:optimizeQuality; fill-rule:evenodd; clip-rule:evenodd"
viewBox="0 0 393 181.23"
 xmlns:xlink="http://www.w3.org/1999/xlink">
 <defs>
  <style type="text/css">
   <![CDATA[
    .fil0 {fill:#D90205;fill-rule:nonzero}
    .fil1 {fill:#FFCC00;fill-rule:nonzero}
   ]]>
  </style>
 </defs>
 <g id="Camada_x0020_1">
  <metadata id="CorelCorpID_0Corel-Layer"/>
  <g id="_2287062404368">
   <path class="fil0" d="M71.54 173.23c-7.04,-5.87 -13.17,-12.83 -18.58,-20.33 -5.38,-7.52 -9.84,-15.78 -13.1,-24.58 -3.23,-8.81 -5.02,-18.25 -5.08,-27.79 -0.19,-9.62 2.08,-19.22 5.73,-28.05 3.69,-8.85 8.86,-17.04 15.08,-24.27 6.21,-7.24 13.36,-13.62 21.09,-19.11 15.52,-10.99 33.28,-18.22 51.43,-22.88 18.23,-4.49 36.95,-6.28 55.54,-6.22 18.57,0.4 36.98,1.87 55.22,5.08 9.11,1.59 18.16,3.54 27.08,5.97 8.91,2.47 17.72,5.31 26.31,8.7 8.56,3.47 16.97,7.33 24.98,11.91 7.96,4.61 15.74,9.68 22.37,16.03 -3.65,-2.75 -7.54,-5.15 -11.52,-7.35 -3.97,-2.22 -8.03,-4.26 -12.16,-6.14 -8.25,-3.76 -16.74,-6.98 -25.37,-9.69 -8.6,-2.79 -17.37,-5.05 -26.21,-6.92 -8.83,-1.88 -17.73,-3.47 -26.69,-4.61 -8.96,-1.12 -17.96,-1.97 -26.97,-2.58 -4.51,-0.25 -9.02,-0.5 -13.54,-0.6 -4.53,-0.17 -9,-0.19 -13.5,-0.15 -17.95,0.11 -35.85,2.05 -53.12,6.36 -17.26,4.22 -33.88,11.04 -48.45,20.9 -14.58,9.75 -26.97,22.96 -34.43,38.71 -3.69,7.88 -5.95,16.36 -6.34,25.04 -0.47,8.74 0.7,17.6 3.19,26.13 2.43,8.57 6.2,16.8 10.77,24.6 2.29,3.89 4.81,7.68 7.52,11.32 2.7,3.66 5.59,7.19 8.74,10.51zm-41.69 -88.32c-3.39,-0.52 -6.92,-0.03 -10.1,1.03 -1.6,0.54 -3.11,1.29 -4.55,2.14l-1.06 0.67c-0.34,0.23 -0.59,0.43 -0.88,0.67 -0.54,0.5 -1.06,1.05 -1.53,1.68 -1.89,2.51 -3.11,5.69 -3.99,8.89 -0.88,3.21 -1.41,6.55 -1.5,9.85 -0.1,3.27 0.35,6.59 1.35,9.25 0.49,1.32 1.12,2.45 1.77,3.14l0.22 0.25c0.02,0.02 0.04,0.04 0.07,0.06 0.06,0.04 0.16,0.12 0.32,0.19 0.31,0.16 0.84,0.26 1.47,0.33 1.26,0.13 2.83,0.01 4.41,-0.21 1.6,-0.23 3.25,-0.55 4.93,-0.91l10.33 -2.45 0.36 0.63c-2.65,2.61 -5.64,4.72 -8.9,6.51 -1.63,0.9 -3.34,1.7 -5.17,2.34 -1.84,0.64 -3.79,1.16 -6.07,1.25 -1.14,0.04 -2.39,-0.06 -3.76,-0.49 -0.68,-0.22 -1.39,-0.51 -2.06,-0.96 -0.34,-0.23 -0.67,-0.48 -0.97,-0.76 -0.27,-0.25 -0.46,-0.47 -0.69,-0.71 -1.78,-1.9 -2.63,-4.1 -3.16,-6.15 -0.98,-4.15 -0.72,-8.04 -0.29,-11.8 0.47,-3.76 1.38,-7.4 2.7,-10.91 1.36,-3.49 3.1,-6.9 5.8,-9.8 0.67,-0.73 1.45,-1.39 2.3,-1.98 0.42,-0.28 0.92,-0.57 1.34,-0.78l1.29 -0.57c1.73,-0.71 3.52,-1.3 5.35,-1.64 3.65,-0.69 7.41,-0.64 10.91,0.54l-0.21 0.69zm75.1 -7.35c0.6,0.47 0.9,1.11 0.9,1.93 0,0.41 -0.06,0.81 -0.17,1.19l-1.14 4.08c-0.21,0.76 -0.54,1.3 -1.01,1.62 -0.47,0.32 -1.08,0.48 -1.85,0.48 -0.73,0 -1.32,-0.15 -1.76,-0.46 -0.44,-0.31 -0.76,-0.81 -0.97,-1.52l-0.7 -2.5c-0.12,-0.44 -0.26,-0.73 -0.44,-0.88 -0.18,-0.15 -0.54,-0.22 -1.1,-0.22l-4.39 0 -2.46 8.7 0.84 0c0.41,0 0.77,-0.06 1.08,-0.18 0.31,-0.12 0.64,-0.34 0.99,-0.66l1.36 -1.14c0.5,-0.44 0.94,-0.75 1.34,-0.94 0.39,-0.19 0.81,-0.28 1.25,-0.28 0.56,0 1.02,0.16 1.38,0.48 0.37,0.32 0.55,0.78 0.55,1.36 0,0.23 -0.04,0.51 -0.13,0.83l-1.93 6.68c-0.44,1.44 -1.23,2.15 -2.37,2.15 -0.94,0 -1.67,-0.48 -2.19,-1.45l-0.79 -1.49c-0.21,-0.41 -0.4,-0.67 -0.57,-0.79 -0.17,-0.12 -0.44,-0.17 -0.79,-0.17l-1.27 0 -1.85 6.54c-0.06,0.17 -0.09,0.41 -0.09,0.7 0,0.41 0.09,0.75 0.28,1.01 0.19,0.26 0.48,0.54 0.86,0.83 0.32,0.26 0.54,0.48 0.66,0.64 0.11,0.16 0.17,0.36 0.17,0.59 0,0.53 -0.24,0.89 -0.7,1.1 -0.47,0.2 -1.16,0.31 -2.06,0.31l-11.02 0c-0.76,0 -1.33,-0.14 -1.71,-0.42 -0.38,-0.28 -0.51,-0.66 -0.39,-1.16 0.06,-0.26 0.17,-0.48 0.33,-0.64 0.16,-0.16 0.4,-0.34 0.72,-0.55 0.5,-0.29 0.89,-0.6 1.19,-0.92 0.29,-0.32 0.53,-0.82 0.7,-1.49l5.4 -18.93c0.12,-0.38 0.17,-0.73 0.17,-1.05 0,-0.35 -0.05,-0.64 -0.15,-0.88 -0.1,-0.23 -0.26,-0.48 -0.46,-0.75 -0.26,-0.38 -0.4,-0.69 -0.4,-0.92 0,-0.09 0.03,-0.25 0.09,-0.48 0.12,-0.38 0.38,-0.65 0.79,-0.81 0.41,-0.16 1.01,-0.24 1.8,-0.24l19.5 0c1.08,0 1.93,0.23 2.53,0.7zm-12.65 50.66l0 2.63 4.28 0 0 3.5 -4.28 0 0 5.46 -3.34 0 0 -15.09 8.68 0 0 3.49 -5.34 0zm14.26 5.88c0,1.87 -0.39,3.33 -1.17,4.37 -0.78,1.04 -1.88,1.57 -3.28,1.57 -1.4,0 -2.5,-0.52 -3.28,-1.57 -0.78,-1.04 -1.17,-2.5 -1.17,-4.37 0,-1.87 0.39,-3.34 1.17,-4.38 0.78,-1.04 1.87,-1.56 3.28,-1.56 1.4,0 2.5,0.52 3.28,1.56 0.78,1.04 1.17,2.51 1.17,4.38zm-5.58 0c0,1.04 0.08,1.76 0.25,2.16 0.17,0.41 0.46,0.61 0.87,0.61 0.41,0 0.7,-0.2 0.88,-0.61 0.17,-0.4 0.26,-1.12 0.26,-2.16 0,-1.04 -0.08,-1.76 -0.26,-2.16 -0.17,-0.4 -0.46,-0.6 -0.88,-0.6 -0.41,0 -0.71,0.2 -0.87,0.6 -0.17,0.41 -0.25,1.13 -0.25,2.16zm15.39 0c0,1.87 -0.39,3.33 -1.17,4.37 -0.78,1.04 -1.88,1.57 -3.28,1.57 -1.4,0 -2.5,-0.52 -3.28,-1.57 -0.78,-1.04 -1.17,-2.5 -1.17,-4.37 0,-1.87 0.39,-3.34 1.17,-4.38 0.78,-1.04 1.87,-1.56 3.28,-1.56 1.4,0 2.5,0.52 3.28,1.56 0.78,1.04 1.17,2.51 1.17,4.38zm-5.58 0c0,1.04 0.08,1.76 0.26,2.16 0.17,0.41 0.46,0.61 0.87,0.61 0.41,0 0.7,-0.2 0.88,-0.61 0.17,-0.4 0.26,-1.12 0.26,-2.16 0,-1.04 -0.08,-1.76 -0.26,-2.16 -0.17,-0.4 -0.46,-0.6 -0.88,-0.6 -0.41,0 -0.7,0.2 -0.87,0.6 -0.17,0.41 -0.26,1.13 -0.26,2.16zm15.49 -10.43l0 16.14 -2.96 0 -0.12 -2.22c-0.24,0.75 -0.58,1.34 -1.03,1.78 -0.45,0.44 -0.98,0.66 -1.59,0.66 -1.02,0 -1.82,-0.52 -2.38,-1.55 -0.57,-1.04 -0.85,-2.48 -0.85,-4.34 0,-1.89 0.29,-3.36 0.86,-4.41 0.57,-1.05 1.37,-1.58 2.4,-1.58 0.57,0 1.05,0.19 1.45,0.57 0.4,0.38 0.71,0.91 0.92,1.6l0 -6.65 3.31 0zm-3.31 10.52l0 -0.18c0,-1.69 -0.37,-2.54 -1.13,-2.54 -0.38,0 -0.67,0.2 -0.86,0.6 -0.2,0.41 -0.3,1.08 -0.3,2.03 0,0.95 0.1,1.63 0.3,2.04 0.19,0.41 0.48,0.61 0.86,0.61 0.75,0 1.13,-0.86 1.13,-2.56zm19.22 -4.32c0,1.6 -0.37,2.83 -1.12,3.67 -0.75,0.85 -1.83,1.27 -3.25,1.27l-2.03 0 0 5.01 -3.34 0 0 -15.09 5.36 0c1.43,0 2.51,0.43 3.25,1.3 0.74,0.87 1.11,2.15 1.11,3.84zm-3.35 -0.04c0,-0.58 -0.13,-1 -0.38,-1.28 -0.25,-0.27 -0.64,-0.41 -1.18,-0.41l-1.49 0 0 3.38 1.49 0c0.53,0 0.93,-0.14 1.18,-0.41 0.25,-0.27 0.38,-0.7 0.38,-1.28zm13.48 7.36l-0.26 2.45c-0.36,0.27 -0.75,0.41 -1.16,0.41 -0.62,0 -1.14,-0.15 -1.54,-0.47 -0.41,-0.31 -0.68,-0.77 -0.81,-1.38 -0.24,0.58 -0.6,1.03 -1.09,1.36 -0.49,0.33 -1.09,0.49 -1.82,0.49 -0.83,0 -1.46,-0.24 -1.89,-0.72 -0.43,-0.48 -0.65,-1.17 -0.65,-2.07 0,-0.96 0.25,-1.74 0.74,-2.33 0.49,-0.6 1.31,-1.06 2.45,-1.37l1.73 -0.5 0 -0.43c0,-0.45 -0.09,-0.79 -0.25,-1.03 -0.16,-0.24 -0.39,-0.36 -0.69,-0.36 -0.33,0 -0.59,0.12 -0.8,0.35 -0.21,0.24 -0.33,0.65 -0.38,1.22l-2.72 -0.8c0.12,-1.22 0.52,-2.16 1.19,-2.83 0.67,-0.67 1.61,-1 2.82,-1 2.73,0 4.09,1.52 4.09,4.55l0 3.65c0,0.61 0.19,0.91 0.57,0.91 0.19,0 0.34,-0.03 0.46,-0.09zm-4.3 -1.19l0 -1.05 -0.9 0.32c-0.56,0.2 -0.85,0.6 -0.85,1.19 0,0.29 0.06,0.51 0.19,0.66 0.13,0.15 0.29,0.23 0.5,0.23 0.28,0 0.53,-0.12 0.74,-0.36 0.21,-0.23 0.32,-0.56 0.32,-0.99zm13.3 -4.11l-3.06 1.3c-0.03,-1.24 -0.34,-1.85 -0.93,-1.85 -0.44,0 -0.76,0.21 -0.96,0.65 -0.2,0.43 -0.3,1.16 -0.3,2.17 0,1 0.11,1.71 0.32,2.11 0.21,0.41 0.52,0.61 0.92,0.61 0.59,0 0.93,-0.56 1.03,-1.67l2.96 1.3c-0.03,0.65 -0.21,1.26 -0.53,1.79 -0.32,0.54 -0.77,0.97 -1.35,1.28 -0.58,0.31 -1.28,0.47 -2.09,0.47 -1.48,0 -2.62,-0.51 -3.4,-1.54 -0.78,-1.03 -1.18,-2.49 -1.18,-4.4 0,-1.89 0.39,-3.35 1.16,-4.39 0.77,-1.04 1.85,-1.56 3.25,-1.56 1.39,0 2.4,0.36 3.05,1.06 0.65,0.71 1.01,1.6 1.1,2.66zm5.64 3.61l-1.18 1.92 0 2.4 -3.3 0 0 -16.14 3.3 0 0 9.12 2.74 -4.41 3.6 0 -2.96 4.48 3.14 6.95 -3.63 0 -1.7 -4.32zm14.77 1.69l-0.26 2.45c-0.36,0.27 -0.75,0.41 -1.16,0.41 -0.62,0 -1.14,-0.15 -1.54,-0.47 -0.41,-0.31 -0.68,-0.77 -0.81,-1.38 -0.24,0.58 -0.6,1.03 -1.09,1.36 -0.49,0.33 -1.09,0.49 -1.82,0.49 -0.83,0 -1.46,-0.24 -1.89,-0.72 -0.43,-0.48 -0.65,-1.17 -0.65,-2.07 0,-0.96 0.25,-1.74 0.74,-2.33 0.49,-0.6 1.31,-1.06 2.45,-1.37l1.73 -0.5 0 -0.43c0,-0.45 -0.08,-0.79 -0.25,-1.03 -0.16,-0.24 -0.39,-0.36 -0.69,-0.36 -0.33,0 -0.59,0.12 -0.8,0.35 -0.21,0.24 -0.33,0.65 -0.38,1.22l-2.72 -0.8c0.12,-1.22 0.52,-2.16 1.19,-2.83 0.67,-0.67 1.61,-1 2.82,-1 2.72,0 4.09,1.52 4.09,4.55l0 3.65c0,0.61 0.19,0.91 0.57,0.91 0.19,0 0.34,-0.03 0.46,-0.09zm-4.3 -1.19l0 -1.05 -0.9 0.32c-0.57,0.2 -0.85,0.6 -0.85,1.19 0,0.29 0.06,0.51 0.19,0.66 0.13,0.15 0.29,0.23 0.5,0.23 0.28,0 0.53,-0.12 0.74,-0.36 0.21,-0.23 0.32,-0.56 0.32,-0.99zm13.75 4.57c0,1.37 -0.42,2.41 -1.26,3.11 -0.84,0.7 -2.02,1.05 -3.53,1.05 -2.89,0 -4.34,-0.86 -4.34,-2.56 0,-0.5 0.13,-0.94 0.38,-1.31 0.25,-0.38 0.65,-0.65 1.2,-0.82 -0.89,-0.5 -1.34,-1.33 -1.34,-2.49 0,-0.54 0.13,-1.01 0.37,-1.42 0.25,-0.41 0.58,-0.73 0.99,-0.96 -0.9,-0.64 -1.36,-1.68 -1.36,-3.11 0,-1.28 0.36,-2.25 1.08,-2.92 0.72,-0.66 1.77,-0.99 3.14,-0.99 0.58,0 1.12,0.06 1.62,0.18 0.09,-0.96 0.32,-1.76 0.71,-2.41 0.39,-0.65 0.94,-0.97 1.65,-0.97 0.14,0 0.25,0.01 0.32,0.02l0.31 2.96c-0.19,-0.04 -0.37,-0.07 -0.54,-0.07 -0.33,0 -0.61,0.09 -0.84,0.27 -0.24,0.19 -0.41,0.41 -0.51,0.69 1.01,0.65 1.51,1.74 1.51,3.25 0,1.26 -0.36,2.22 -1.08,2.88 -0.72,0.65 -1.77,0.98 -3.14,0.98 -0.65,0 -1.21,-0.06 -1.72,-0.2 -0.23,0.09 -0.34,0.27 -0.34,0.54 0,0.43 0.26,0.64 0.77,0.64l2.81 0c1.02,0 1.8,0.3 2.35,0.91 0.54,0.61 0.81,1.52 0.81,2.74zm-5.61 -8.52c0,0.42 0.08,0.76 0.25,1.01 0.17,0.25 0.39,0.38 0.68,0.38 0.28,0 0.51,-0.13 0.68,-0.38 0.17,-0.25 0.26,-0.59 0.26,-1.01 0,-0.43 -0.08,-0.77 -0.26,-1.02 -0.17,-0.25 -0.4,-0.38 -0.68,-0.38 -0.28,0 -0.51,0.12 -0.68,0.38 -0.17,0.25 -0.25,0.6 -0.25,1.02zm3.08 8.98c0,-0.35 -0.26,-0.53 -0.79,-0.53l-2.26 0c-0.41,0 -0.7,0.05 -0.86,0.14 -0.16,0.09 -0.25,0.25 -0.25,0.46 0,0.26 0.17,0.45 0.5,0.57 0.33,0.12 0.87,0.18 1.61,0.18 1.36,0 2.04,-0.27 2.04,-0.82zm3.14 -15.68c0,-0.73 0.14,-1.26 0.43,-1.58 0.28,-0.32 0.76,-0.48 1.42,-0.48 0.66,0 1.14,0.16 1.42,0.48 0.28,0.32 0.43,0.85 0.43,1.58 0,0.72 -0.14,1.24 -0.43,1.55 -0.28,0.32 -0.76,0.48 -1.42,0.48 -0.66,0 -1.14,-0.16 -1.42,-0.48 -0.28,-0.32 -0.43,-0.84 -0.43,-1.55zm3.5 14.47l-3.3 0 0 -11.43 3.3 0 0 11.43zm10.16 -7.73l0 7.73 -3.3 0 0 -6.49c0,-0.63 -0.07,-1.07 -0.21,-1.33 -0.14,-0.25 -0.35,-0.38 -0.63,-0.38 -0.35,0 -0.62,0.17 -0.82,0.53 -0.2,0.36 -0.3,0.91 -0.3,1.66l0 6.01 -3.3 0 0 -11.43 2.98 0 0.08 2.35c0.24,-0.84 0.6,-1.48 1.08,-1.92 0.48,-0.44 1.06,-0.66 1.73,-0.66 0.84,0 1.5,0.34 1.98,1.02 0.47,0.69 0.71,1.66 0.71,2.91zm10.15 8.48c0,1.37 -0.42,2.41 -1.26,3.11 -0.84,0.7 -2.02,1.05 -3.53,1.05 -2.89,0 -4.34,-0.86 -4.34,-2.56 0,-0.5 0.13,-0.94 0.38,-1.31 0.25,-0.38 0.65,-0.65 1.2,-0.82 -0.9,-0.5 -1.34,-1.33 -1.34,-2.49 0,-0.54 0.13,-1.01 0.37,-1.42 0.25,-0.41 0.57,-0.73 0.99,-0.96 -0.9,-0.64 -1.36,-1.68 -1.36,-3.11 0,-1.28 0.36,-2.25 1.08,-2.92 0.72,-0.66 1.77,-0.99 3.14,-0.99 0.58,0 1.12,0.06 1.62,0.18 0.09,-0.96 0.32,-1.76 0.71,-2.41 0.39,-0.65 0.94,-0.97 1.65,-0.97 0.14,0 0.25,0.01 0.32,0.02l0.31 2.96c-0.19,-0.04 -0.38,-0.07 -0.54,-0.07 -0.33,0 -0.61,0.09 -0.84,0.27 -0.24,0.19 -0.41,0.41 -0.51,0.69 1.01,0.65 1.51,1.74 1.51,3.25 0,1.26 -0.36,2.22 -1.08,2.88 -0.72,0.65 -1.77,0.98 -3.14,0.98 -0.65,0 -1.21,-0.06 -1.72,-0.2 -0.23,0.09 -0.34,0.27 -0.34,0.54 0,0.43 0.26,0.64 0.77,0.64l2.81 0c1.02,0 1.8,0.3 2.35,0.91 0.54,0.61 0.81,1.52 0.81,2.74zm-5.61 -8.52c0,0.42 0.08,0.76 0.26,1.01 0.17,0.25 0.39,0.38 0.68,0.38 0.28,0 0.51,-0.13 0.68,-0.38 0.17,-0.25 0.26,-0.59 0.26,-1.01 0,-0.43 -0.08,-0.77 -0.26,-1.02 -0.17,-0.25 -0.4,-0.38 -0.68,-0.38 -0.28,0 -0.51,0.12 -0.68,0.38 -0.17,0.25 -0.26,0.6 -0.26,1.02zm3.08 8.98c0,-0.35 -0.26,-0.53 -0.79,-0.53l-2.26 0c-0.41,0 -0.7,0.05 -0.86,0.14 -0.16,0.09 -0.25,0.25 -0.25,0.46 0,0.26 0.17,0.45 0.5,0.57 0.33,0.12 0.87,0.18 1.61,0.18 1.36,0 2.04,-0.27 2.04,-0.82zm16.37 -4.71l0 3.5 -8.47 0 0 -15.09 3.34 0 0 11.59 5.14 0zm10.01 0.87l-0.26 2.45c-0.36,0.27 -0.75,0.41 -1.16,0.41 -0.62,0 -1.13,-0.15 -1.54,-0.47 -0.41,-0.31 -0.68,-0.77 -0.81,-1.38 -0.24,0.58 -0.6,1.03 -1.09,1.36 -0.49,0.33 -1.09,0.49 -1.82,0.49 -0.83,0 -1.46,-0.24 -1.89,-0.72 -0.43,-0.48 -0.65,-1.17 -0.65,-2.07 0,-0.96 0.24,-1.74 0.74,-2.33 0.49,-0.6 1.31,-1.06 2.45,-1.37l1.73 -0.5 0 -0.43c0,-0.45 -0.08,-0.79 -0.25,-1.03 -0.16,-0.24 -0.39,-0.36 -0.69,-0.36 -0.33,0 -0.59,0.12 -0.8,0.35 -0.21,0.24 -0.33,0.65 -0.38,1.22l-2.72 -0.8c0.12,-1.22 0.51,-2.16 1.19,-2.83 0.67,-0.67 1.61,-1 2.82,-1 2.73,0 4.09,1.52 4.09,4.55l0 3.65c0,0.61 0.19,0.91 0.57,0.91 0.19,0 0.34,-0.03 0.46,-0.09zm-4.3 -1.19l0 -1.05 -0.9 0.32c-0.56,0.2 -0.85,0.6 -0.85,1.19 0,0.29 0.06,0.51 0.19,0.66 0.13,0.15 0.29,0.23 0.5,0.23 0.28,0 0.53,-0.12 0.74,-0.36 0.21,-0.23 0.32,-0.56 0.32,-0.99zm14 -1.85c0,1.87 -0.28,3.32 -0.84,4.35 -0.56,1.03 -1.36,1.54 -2.38,1.54 -0.65,0 -1.21,-0.25 -1.68,-0.74 -0.47,-0.49 -0.82,-1.17 -1.04,-2.02l-0.1 2.54 -2.89 0 0 -16.14 3.3 0 0 6.63c0.22,-0.67 0.53,-1.19 0.94,-1.58 0.4,-0.38 0.89,-0.57 1.46,-0.57 1.03,0 1.82,0.53 2.39,1.58 0.57,1.06 0.85,2.53 0.85,4.41zm-3.32 -0.05c0,-0.95 -0.1,-1.62 -0.29,-2.03 -0.2,-0.4 -0.49,-0.6 -0.89,-0.6 -0.72,0 -1.1,0.79 -1.13,2.38l0 0.51c0.03,1.6 0.41,2.4 1.13,2.4 0.38,0 0.67,-0.21 0.88,-0.61 0.2,-0.41 0.3,-1.09 0.3,-2.04zm13.21 0c0,1.87 -0.39,3.33 -1.17,4.37 -0.78,1.04 -1.88,1.57 -3.28,1.57 -1.4,0 -2.5,-0.52 -3.28,-1.57 -0.78,-1.04 -1.17,-2.5 -1.17,-4.37 0,-1.87 0.39,-3.34 1.17,-4.38 0.78,-1.04 1.87,-1.56 3.28,-1.56 1.4,0 2.5,0.52 3.28,1.56 0.78,1.04 1.17,2.51 1.17,4.38zm-5.58 0c0,1.04 0.08,1.76 0.26,2.16 0.17,0.41 0.46,0.61 0.87,0.61 0.41,0 0.71,-0.2 0.88,-0.61 0.17,-0.4 0.25,-1.12 0.25,-2.16 0,-1.04 -0.08,-1.76 -0.25,-2.16 -0.17,-0.4 -0.46,-0.6 -0.88,-0.6 -0.41,0 -0.7,0.2 -0.87,0.6 -0.17,0.41 -0.26,1.13 -0.26,2.16zm13.2 -5.67l-0.31 3.82c-0.1,-0.1 -0.24,-0.19 -0.43,-0.25 -0.19,-0.06 -0.38,-0.09 -0.6,-0.09 -0.52,0 -0.93,0.19 -1.24,0.58 -0.32,0.39 -0.48,0.96 -0.48,1.71l0 5.63 -3.3 0 0 -11.43 2.96 0 0.1 2.68c0.19,-0.93 0.5,-1.65 0.9,-2.15 0.4,-0.5 0.91,-0.75 1.53,-0.75 0.39,0 0.67,0.09 0.87,0.27zm9.59 8.76l-0.26 2.45c-0.36,0.27 -0.75,0.41 -1.16,0.41 -0.62,0 -1.14,-0.15 -1.54,-0.47 -0.41,-0.31 -0.68,-0.77 -0.81,-1.38 -0.24,0.58 -0.6,1.03 -1.09,1.36 -0.49,0.33 -1.09,0.49 -1.82,0.49 -0.83,0 -1.45,-0.24 -1.89,-0.72 -0.43,-0.48 -0.65,-1.17 -0.65,-2.07 0,-0.96 0.25,-1.74 0.74,-2.33 0.49,-0.6 1.31,-1.06 2.45,-1.37l1.73 -0.5 0 -0.43c0,-0.45 -0.08,-0.79 -0.25,-1.03 -0.16,-0.24 -0.39,-0.36 -0.69,-0.36 -0.33,0 -0.59,0.12 -0.8,0.35 -0.21,0.24 -0.33,0.65 -0.38,1.22l-2.72 -0.8c0.12,-1.22 0.52,-2.16 1.19,-2.83 0.67,-0.67 1.61,-1 2.82,-1 2.73,0 4.09,1.52 4.09,4.55l0 3.65c0,0.61 0.19,0.91 0.57,0.91 0.18,0 0.34,-0.03 0.46,-0.09zm-4.3 -1.19l0 -1.05 -0.9 0.32c-0.56,0.2 -0.85,0.6 -0.85,1.19 0,0.29 0.06,0.51 0.19,0.66 0.13,0.15 0.29,0.23 0.5,0.23 0.28,0 0.53,-0.12 0.74,-0.36 0.21,-0.23 0.32,-0.56 0.32,-0.99zm11.03 3.22c-0.26,0.25 -0.62,0.45 -1.06,0.6 -0.45,0.15 -0.89,0.23 -1.31,0.23 -1.09,0 -1.91,-0.3 -2.45,-0.91 -0.55,-0.61 -0.82,-1.6 -0.82,-2.97l0 -4.6 -1.32 0 0 -3.17 1.32 0 0 -2.49 3.3 -1.28 0 3.77 2.24 0 0 3.17 -2.24 0 0 3.87c0,0.53 0.08,0.91 0.26,1.14 0.17,0.23 0.43,0.34 0.77,0.34 0.41,0 0.78,-0.13 1.1,-0.39l0.21 2.7zm9.47 -5.12c0,1.87 -0.39,3.33 -1.17,4.37 -0.78,1.04 -1.88,1.57 -3.28,1.57 -1.4,0 -2.5,-0.52 -3.28,-1.57 -0.78,-1.04 -1.17,-2.5 -1.17,-4.37 0,-1.87 0.39,-3.34 1.17,-4.38 0.78,-1.04 1.87,-1.56 3.28,-1.56 1.4,0 2.5,0.52 3.28,1.56 0.78,1.04 1.17,2.51 1.17,4.38zm-5.58 0c0,1.04 0.08,1.76 0.26,2.16 0.17,0.41 0.46,0.61 0.87,0.61 0.41,0 0.71,-0.2 0.88,-0.61 0.17,-0.4 0.25,-1.12 0.25,-2.16 0,-1.04 -0.08,-1.76 -0.25,-2.16 -0.17,-0.4 -0.46,-0.6 -0.88,-0.6 -0.41,0 -0.7,0.2 -0.87,0.6 -0.17,0.41 -0.26,1.13 -0.26,2.16zm13.2 -5.67l-0.31 3.82c-0.1,-0.1 -0.24,-0.19 -0.43,-0.25 -0.19,-0.06 -0.39,-0.09 -0.6,-0.09 -0.52,0 -0.93,0.19 -1.24,0.58 -0.32,0.39 -0.48,0.96 -0.48,1.71l0 5.63 -3.3 0 0 -11.43 2.96 0 0.1 2.68c0.19,-0.93 0.5,-1.65 0.9,-2.15 0.4,-0.5 0.91,-0.75 1.53,-0.75 0.39,0 0.67,0.09 0.87,0.27zm6.93 10.7c-0.34,1.39 -0.7,2.48 -1.11,3.29 -0.4,0.81 -0.89,1.39 -1.44,1.76 -0.56,0.36 -1.23,0.54 -2.03,0.54 -0.98,0 -1.78,-0.27 -2.39,-0.8l0.64 -2.97c0.18,0.17 0.37,0.29 0.58,0.37 0.21,0.07 0.5,0.11 0.86,0.11 0.34,0 0.6,-0.06 0.78,-0.18 0.19,-0.12 0.32,-0.34 0.41,-0.66l0.12 -0.43 -1 -3.25 -2.39 -8.53 3.63 0 0.98 6.2 0.34 2.54 0.39 -2.61 1.03 -6.13 3.25 0 -2.67 10.75zm28.84 -54.76c0.98,1 1.47,2.23 1.47,3.69 0,0.56 -0.06,1.07 -0.18,1.54 -0.29,1.2 -0.85,2.12 -1.67,2.77 -0.82,0.64 -1.8,0.97 -2.94,0.97 -1.11,0 -1.95,-0.26 -2.53,-0.79 -0.57,-0.53 -1.08,-1.23 -1.52,-2.11 -0.23,-0.5 -0.45,-0.86 -0.66,-1.1 -0.21,-0.24 -0.44,-0.35 -0.7,-0.35 -0.29,0 -0.55,0.12 -0.77,0.35 -0.22,0.23 -0.42,0.64 -0.59,1.23l-3.38 10.98c-0.06,0.15 -0.09,0.37 -0.09,0.66 0,0.38 0.11,0.7 0.33,0.95 0.22,0.25 0.52,0.49 0.9,0.72 0.35,0.24 0.58,0.43 0.7,0.57 0.12,0.15 0.16,0.34 0.13,0.57 -0.06,0.38 -0.27,0.66 -0.64,0.84 -0.37,0.17 -0.99,0.26 -1.87,0.26l-11.24 0c-0.76,0 -1.31,-0.12 -1.65,-0.37 -0.34,-0.25 -0.46,-0.58 -0.37,-0.99 0.12,-0.35 0.42,-0.66 0.92,-0.92 0.44,-0.23 0.81,-0.51 1.1,-0.83 0.29,-0.32 0.54,-0.84 0.75,-1.54l3.91 -12.69c0.06,-0.15 0.09,-0.35 0.09,-0.62 0,-0.32 -0.07,-0.57 -0.2,-0.75 -0.13,-0.18 -0.34,-0.4 -0.64,-0.66 -0.29,-0.23 -0.5,-0.44 -0.62,-0.61 -0.12,-0.17 -0.13,-0.41 -0.04,-0.7 0.17,-0.67 1.1,-1.27 2.77,-1.78 1.67,-0.51 3.41,-0.77 5.23,-0.77 1.2,0 2.2,0.27 2.99,0.81 0.79,0.54 1.3,1.31 1.54,2.3 1.41,-2.08 3.25,-3.12 5.53,-3.12 1.64,0 2.95,0.5 3.93,1.49zm-38.63 8.7c1.23,0 2.17,-0.57 2.81,-1.71 0.64,-1.14 0.95,-2.41 0.92,-3.82 -0.03,-0.82 -0.26,-1.23 -0.7,-1.23 -0.32,0 -0.7,0.26 -1.14,0.77 -0.44,0.51 -0.87,1.28 -1.3,2.3 -0.43,1.03 -0.78,2.24 -1.08,3.65 0.12,0.03 0.28,0.04 0.48,0.04zm11.51 -8.63c1.67,1.19 2.5,2.7 2.5,4.55 0,0.56 -0.06,1.07 -0.17,1.54 -0.44,1.93 -1.66,3.32 -3.67,4.15 -2.01,0.83 -4.37,1.25 -7.09,1.25 -1.38,0 -2.66,-0.09 -3.87,-0.26 -0.03,1.52 0.38,2.59 1.23,3.21 0.85,0.62 2.03,0.92 3.56,0.92 0.7,0 1.37,-0.08 2.02,-0.24 0.64,-0.16 1.46,-0.4 2.46,-0.73 0.82,-0.29 1.38,-0.44 1.67,-0.44 0.32,0 0.48,0.19 0.48,0.57 0.03,1.02 -0.35,2.1 -1.14,3.23 -0.79,1.13 -1.96,2.09 -3.51,2.88 -1.55,0.79 -3.43,1.19 -5.62,1.19 -3.25,0 -5.92,-0.82 -7.99,-2.46 -2.08,-1.64 -3.12,-4.03 -3.12,-7.16 0,-0.88 0.12,-1.9 0.35,-3.07 0.73,-3.6 2.33,-6.32 4.81,-8.15 2.47,-1.83 5.48,-2.74 9.03,-2.74 3.72,0 6.41,0.59 8.08,1.78zm-34.39 5.91c0,-0.62 -0.09,-1.02 -0.28,-1.21 -0.19,-0.19 -0.46,-0.28 -0.81,-0.28 -0.26,0 -0.6,0.12 -1.01,0.37 -0.41,0.25 -0.82,0.67 -1.23,1.25l-3.47 11.51c0.35,0.35 0.78,0.53 1.27,0.53 0.79,0 1.54,-0.45 2.26,-1.34 0.72,-0.89 1.46,-2.7 2.22,-5.42 0.7,-2.61 1.05,-4.41 1.05,-5.4zm9.36 -5.4c1.29,1.49 1.93,3.53 1.93,6.1 0,1.38 -0.19,2.83 -0.57,4.35 -0.88,3.63 -2.52,6.39 -4.92,8.28 -2.4,1.89 -5.18,2.83 -8.35,2.83 -2.02,0 -3.78,-0.42 -5.27,-1.27l-1.4 4.7c-0.12,0.32 -0.18,0.63 -0.18,0.92 0,0.32 0.07,0.59 0.22,0.81 0.15,0.22 0.34,0.43 0.57,0.64 0.23,0.23 0.39,0.42 0.46,0.57 0.07,0.15 0.08,0.32 0.02,0.53 -0.12,0.38 -0.4,0.65 -0.83,0.81 -0.44,0.16 -1.12,0.24 -2.02,0.24l-10.06 0c-0.76,0 -1.31,-0.12 -1.65,-0.37 -0.34,-0.25 -0.43,-0.56 -0.29,-0.94 0.06,-0.24 0.16,-0.43 0.31,-0.57 0.15,-0.15 0.35,-0.28 0.62,-0.4 0.44,-0.29 0.79,-0.59 1.06,-0.9 0.26,-0.31 0.5,-0.8 0.7,-1.47l6.41 -21.04c0.09,-0.26 0.13,-0.48 0.13,-0.66 0,-0.32 -0.07,-0.58 -0.22,-0.77 -0.15,-0.19 -0.37,-0.39 -0.66,-0.59 -0.29,-0.23 -0.5,-0.44 -0.61,-0.61 -0.12,-0.18 -0.13,-0.41 -0.04,-0.7 0.18,-0.67 1.1,-1.27 2.77,-1.78 1.67,-0.51 3.41,-0.77 5.23,-0.77 1.29,0 2.35,0.32 3.18,0.97 0.84,0.64 1.31,1.54 1.43,2.68 1.99,-2.55 4.23,-3.82 6.72,-3.82 2.25,0 4.02,0.75 5.31,2.24zm-45.79 12.19c-0.51,0.63 -0.77,1.31 -0.77,2.04 0,0.47 0.11,0.85 0.33,1.14 0.22,0.29 0.53,0.44 0.95,0.44 0.38,0 0.8,-0.15 1.25,-0.46 0.45,-0.31 0.78,-0.77 0.99,-1.38l0.92 -2.59c-0.5,-0.09 -1.06,-0.13 -1.67,-0.13 -0.82,0 -1.49,0.31 -2,0.94zm12.54 -12.39c2.02,1.24 3.03,3.14 3.03,5.69 0,0.97 -0.18,2.06 -0.53,3.29l-1.8 6.06c-0.03,0.12 -0.04,0.26 -0.04,0.44 0,0.47 0.19,0.7 0.57,0.7 0.35,0 0.65,-0.15 0.9,-0.46 0.25,-0.31 0.42,-0.46 0.51,-0.46 0.15,0 0.27,0.1 0.37,0.31 0.1,0.21 0.15,0.44 0.15,0.7 0.03,0.79 -0.27,1.6 -0.9,2.42 -0.63,0.82 -1.47,1.49 -2.53,2.02 -1.05,0.53 -2.21,0.79 -3.47,0.79 -1.52,0 -2.83,-0.28 -3.91,-0.83 -1.08,-0.56 -1.83,-1.38 -2.24,-2.46 -0.88,1.06 -1.92,1.87 -3.12,2.44 -1.2,0.57 -2.49,0.86 -3.87,0.86 -1.55,0 -2.86,-0.3 -3.91,-0.9 -1.06,-0.6 -1.84,-1.38 -2.35,-2.33 -0.51,-0.95 -0.77,-1.95 -0.77,-3.01 0,-0.47 0.04,-0.92 0.13,-1.36 0.47,-2.02 1.49,-3.54 3.05,-4.57 1.57,-1.03 3.43,-1.54 5.6,-1.54 2.43,0 4.82,0.38 7.16,1.14l1.1 -2.9c0.38,-1.23 0.57,-2.18 0.57,-2.86 -0.03,-0.7 -0.26,-1.23 -0.7,-1.58 -0.44,-0.35 -1.11,-0.53 -2.02,-0.53 0.17,0.47 0.26,0.95 0.26,1.45 0,1.08 -0.41,2.02 -1.23,2.81 -0.82,0.79 -1.99,1.19 -3.51,1.19 -1.43,0 -2.55,-0.31 -3.36,-0.94 -0.8,-0.63 -1.21,-1.41 -1.21,-2.35 0,-1.46 0.82,-2.68 2.46,-3.65 1.64,-0.97 4.14,-1.45 7.51,-1.45 3.37,0 6.06,0.62 8.08,1.87zm-30.75 -1.38c0,-1.7 -0.79,-2.55 -2.37,-2.55l-1.98 0 -3.12 10.85 1.93 0c1.23,0 2.23,-0.39 3.01,-1.16 0.78,-0.78 1.46,-2.2 2.04,-4.28 0.32,-1.08 0.48,-2.03 0.48,-2.85zm7.84 -4.48c1.68,1.35 2.52,3.13 2.52,5.36 0,0.88 -0.13,1.8 -0.4,2.77 -0.82,2.93 -2.44,5.1 -4.85,6.5 -2.42,1.4 -5.47,2.11 -9.16,2.11l-4.52 0 -1.49 5.31c-0.06,0.17 -0.09,0.41 -0.09,0.7 0,0.41 0.1,0.75 0.29,1.01 0.19,0.26 0.48,0.57 0.86,0.92 0.32,0.29 0.54,0.52 0.66,0.66 0.12,0.15 0.17,0.32 0.17,0.53 0,0.5 -0.23,0.85 -0.7,1.05 -0.47,0.21 -1.15,0.31 -2.06,0.31l-11.02 0c-0.76,0 -1.33,-0.14 -1.71,-0.42 -0.38,-0.28 -0.51,-0.67 -0.39,-1.16 0.06,-0.26 0.17,-0.48 0.33,-0.64 0.16,-0.16 0.4,-0.35 0.72,-0.55 0.5,-0.29 0.89,-0.6 1.19,-0.92 0.29,-0.32 0.53,-0.82 0.7,-1.49l5.36 -18.93c0.11,-0.38 0.17,-0.75 0.17,-1.1 0,-0.32 -0.05,-0.59 -0.15,-0.81 -0.1,-0.22 -0.24,-0.48 -0.42,-0.77 -0.26,-0.38 -0.39,-0.69 -0.39,-0.92 0,-0.09 0.03,-0.25 0.09,-0.48 0.12,-0.38 0.37,-0.65 0.77,-0.81 0.39,-0.16 1,-0.24 1.82,-0.24l14.54 0c3.1,0 5.5,0.67 7.18,2.02zm-52.73 7.95c-0.85,0 -1.68,0.63 -2.5,1.89 -0.82,1.26 -1.48,2.78 -1.98,4.57 -0.5,1.79 -0.73,3.4 -0.7,4.83 0,1.61 0.53,2.42 1.58,2.42 0.38,0 0.7,-0.15 0.97,-0.46 0.26,-0.31 0.51,-0.81 0.75,-1.51l3.43 -11.11c-0.47,-0.41 -0.98,-0.61 -1.54,-0.61zm8.79 13.44c0,0.21 0.06,0.37 0.17,0.48 0.12,0.12 0.26,0.18 0.44,0.18 0.35,0 0.65,-0.15 0.9,-0.46 0.25,-0.31 0.42,-0.46 0.51,-0.46 0.14,0 0.26,0.1 0.35,0.31 0.09,0.21 0.13,0.44 0.13,0.7 0.03,0.79 -0.27,1.6 -0.9,2.42 -0.63,0.82 -1.47,1.49 -2.53,2.02 -1.05,0.53 -2.19,0.79 -3.42,0.79 -1.47,0 -2.74,-0.28 -3.82,-0.83 -1.08,-0.56 -1.83,-1.29 -2.24,-2.2 -0.79,1.03 -1.7,1.79 -2.72,2.29 -1.02,0.5 -2.11,0.75 -3.25,0.75 -1.35,0 -2.6,-0.34 -3.76,-1.01 -1.16,-0.67 -2.08,-1.63 -2.77,-2.88 -0.69,-1.25 -1.03,-2.66 -1.03,-4.24 0,-2.67 0.5,-5.17 1.51,-7.53 1.01,-2.36 2.42,-4.26 4.24,-5.71 1.81,-1.45 3.88,-2.17 6.19,-2.17 1.26,0 2.33,0.15 3.23,0.44 0.89,0.29 1.71,0.73 2.44,1.32l1.49 -4.92c0.09,-0.26 0.13,-0.48 0.13,-0.66 0,-0.32 -0.08,-0.58 -0.24,-0.79 -0.16,-0.2 -0.37,-0.41 -0.64,-0.61 -0.29,-0.23 -0.51,-0.44 -0.64,-0.61 -0.13,-0.18 -0.15,-0.41 -0.06,-0.7 0.17,-0.67 1.1,-1.26 2.77,-1.76 1.67,-0.5 3.41,-0.75 5.23,-0.75 1.7,0 2.95,0.32 3.75,0.97 0.81,0.65 1.21,1.52 1.21,2.63 0,0.65 -0.1,1.27 -0.31,1.89l-6.28 20.64c-0.06,0.24 -0.09,0.4 -0.09,0.48zm-38.36 -11.84c-0.69,1.1 -1.5,3.17 -2.44,6.22 -0.94,3.05 -1.4,5.18 -1.4,6.41 0,0.64 0.1,1.08 0.31,1.3 0.2,0.22 0.48,0.33 0.83,0.33 0.62,0.06 1.25,-0.47 1.91,-1.58 0.66,-1.11 1.48,-3.28 2.48,-6.5 0.91,-2.84 1.36,-4.9 1.36,-6.2 0,-0.61 -0.09,-1.04 -0.28,-1.27 -0.19,-0.23 -0.46,-0.35 -0.81,-0.35 -0.61,0 -1.27,0.55 -1.95,1.65zm10.89 -3.14c1.89,1.61 2.83,3.72 2.83,6.32 0,0.88 -0.12,1.86 -0.35,2.94 -0.56,2.4 -1.6,4.5 -3.12,6.3 -1.52,1.8 -3.39,3.19 -5.6,4.17 -2.21,0.98 -4.6,1.47 -7.18,1.47 -4.07,0 -7.08,-0.81 -9.03,-2.44 -1.95,-1.62 -2.92,-3.78 -2.92,-6.48 0,-0.91 0.12,-1.92 0.35,-3.03 0.56,-2.28 1.62,-4.31 3.19,-6.08 1.57,-1.77 3.48,-3.15 5.75,-4.13 2.27,-0.98 4.69,-1.47 7.27,-1.47 3.98,0 6.92,0.81 8.81,2.42zm-39.7 3.14c-0.69,1.1 -1.5,3.17 -2.44,6.22 -0.94,3.05 -1.4,5.18 -1.4,6.41 0,0.64 0.1,1.08 0.31,1.3 0.2,0.22 0.48,0.33 0.84,0.33 0.62,0.06 1.25,-0.47 1.91,-1.58 0.66,-1.11 1.48,-3.28 2.48,-6.5 0.91,-2.84 1.36,-4.9 1.36,-6.2 0,-0.61 -0.1,-1.04 -0.28,-1.27 -0.19,-0.23 -0.46,-0.35 -0.81,-0.35 -0.61,0 -1.27,0.55 -1.95,1.65zm10.89 -3.14c1.89,1.61 2.83,3.72 2.83,6.32 0,0.88 -0.12,1.86 -0.35,2.94 -0.56,2.4 -1.6,4.5 -3.12,6.3 -1.52,1.8 -3.39,3.19 -5.6,4.17 -2.21,0.98 -4.61,1.47 -7.18,1.47 -4.07,0 -7.08,-0.81 -9.03,-2.44 -1.95,-1.62 -2.92,-3.78 -2.92,-6.48 0,-0.91 0.12,-1.92 0.35,-3.03 0.56,-2.28 1.62,-4.31 3.19,-6.08 1.57,-1.77 3.48,-3.15 5.75,-4.13 2.27,-0.98 4.69,-1.47 7.27,-1.47 3.98,0 6.92,0.81 8.81,2.42zm236.11 20.05c0.81,4.1 0.88,8.32 0.68,12.51 -0.25,4.2 -0.89,8.38 -1.93,12.49 -2.05,8.21 -5.68,16.09 -10.66,23 -5,6.89 -11.23,12.91 -18.3,17.52 -7.04,4.67 -14.76,8.18 -22.79,10.37 7.37,-3.86 14.41,-8.11 20.81,-13.11 0.81,-0.61 1.6,-1.24 2.35,-1.92l2.32 -1.95c1.45,-1.4 2.99,-2.71 4.34,-4.21 2.85,-2.85 5.42,-5.95 7.74,-9.22 2.39,-3.23 4.47,-6.68 6.27,-10.27 1.86,-3.57 3.35,-7.33 4.67,-11.15 2.54,-7.69 4.16,-15.76 4.49,-24.06zm-15.07 -58.73c2.54,-2.75 5.87,-4.64 9.45,-5.82 1.79,-0.59 3.66,-0.94 5.54,-1.16l1.42 -0.12c0.48,-0.02 1.04,-0.01 1.54,0.03 1.02,0.1 2.02,0.3 2.96,0.61 3.78,1.23 7,3.39 9.91,5.8 2.9,2.46 5.49,5.23 7.77,8.31 1.14,1.53 2.2,3.15 3.14,4.88 0.94,1.72 1.79,3.56 2.34,5.59 0.53,2.02 0.85,4.29 0.27,6.71 -0.08,0.3 -0.14,0.58 -0.24,0.91 -0.12,0.37 -0.27,0.71 -0.43,1.05 -0.33,0.67 -0.77,1.24 -1.22,1.73 -0.92,0.98 -1.9,1.67 -2.89,2.19 -3.95,1.98 -7.74,2.43 -11.51,2.64 -3.76,0.17 -7.48,-0.06 -11.14,-0.81l0 -0.58c3.58,-0.87 7.12,-1.65 10.53,-2.57 1.7,-0.49 3.37,-0.95 4.95,-1.56 1.57,-0.6 3.1,-1.23 4.26,-2.05 0.57,-0.4 1.07,-0.8 1.35,-1.18 0.15,-0.19 0.24,-0.36 0.32,-0.5 0.03,-0.07 0.06,-0.14 0.08,-0.21l0.09 -0.41c0.27,-1.13 0.22,-2.57 -0.05,-4.07 -0.52,-3.03 -1.94,-6.21 -3.74,-9.11 -1.81,-2.92 -4.04,-5.63 -6.51,-8.05 -2.47,-2.4 -5.23,-4.61 -8.29,-5.88 -0.76,-0.33 -1.53,-0.55 -2.31,-0.71 -0.39,-0.07 -0.75,-0.11 -1.17,-0.14l-1.3 -0.03c-1.73,0.01 -3.48,0.13 -5.19,0.5 -3.4,0.73 -6.78,2.14 -9.51,4.4l-0.42 -0.4zm-103.25 -19.16c-6.86,-0.88 -13.7,-1.71 -20.55,-2.27 -6.85,-0.56 -13.71,-0.89 -20.57,-1.05 -6.86,-0.08 -13.71,-0.05 -20.55,0.3 -6.84,0.3 -13.67,0.82 -20.46,1.66 -6.8,0.76 -13.56,1.8 -20.28,3.1 -6.73,1.24 -13.38,2.86 -19.97,4.68 -6.57,1.89 -13.09,3.99 -19.39,6.67 -3.18,1.28 -6.25,2.79 -9.27,4.4 -3.01,1.63 -5.95,3.43 -8.61,5.64 2.35,-2.54 5.1,-4.72 7.99,-6.66 2.89,-1.95 5.9,-3.71 9,-5.3 6.2,-3.19 12.69,-5.78 19.29,-7.98 6.6,-2.24 13.35,-3.97 20.15,-5.47 6.81,-1.45 13.69,-2.54 20.6,-3.38 13.83,-1.59 27.79,-1.92 41.65,-1.03 6.93,0.46 13.83,1.26 20.68,2.32 6.84,1.15 13.63,2.56 20.3,4.37z"/>
   <path class="fil1" d="M60.17 148.82c-5.28,-6.26 -8.82,-13.89 -11.49,-21.7 -2.54,-7.88 -4.15,-16.1 -4.69,-24.4 -0.28,-4.18 -0.39,-8.26 -0.23,-12.55 0.24,-4.33 1.05,-8.61 2.3,-12.74 2.48,-8.27 6.63,-15.93 11.73,-22.76 5.14,-6.83 11.3,-12.79 17.97,-17.99 6.69,-5.18 13.89,-9.68 21.45,-13.34 7.56,-3.69 15.41,-6.68 23.4,-9.12 8,-2.42 16.13,-4.35 24.34,-5.63 8.21,-1.32 16.47,-2.17 24.74,-2.6 8.27,-0.46 16.54,-0.5 24.78,-0.14 16.4,0.75 32.79,2.28 48.96,5.26 16.17,2.89 32.13,7.11 47.49,12.91 7.66,2.95 15.19,6.26 22.4,10.15 7.19,3.91 14.23,8.21 20.33,13.63 -3.35,-2.3 -6.9,-4.27 -10.5,-6.1 -3.61,-1.83 -7.27,-3.53 -11,-5.08 -7.46,-3.07 -15.04,-5.81 -22.77,-8.04 -15.42,-4.61 -31.24,-7.66 -47.15,-9.84 -15.93,-2.04 -31.97,-3.19 -48.04,-3.47 -15.98,-0.2 -31.96,0.55 -47.6,3.25 -15.62,2.63 -30.99,6.84 -45.16,13.6 -7.06,3.39 -13.89,7.25 -20.15,11.87 -6.27,4.6 -11.98,9.92 -16.86,15.89 -4.89,5.95 -8.9,12.63 -11.43,19.82 -1.27,3.59 -2.13,7.31 -2.61,11.07 -0.41,3.81 -0.68,7.86 -0.72,11.8 -0.05,7.93 0.54,15.9 2.22,23.72 0.82,3.91 1.86,7.79 3.23,11.57 1.36,3.78 2.94,7.52 5.07,10.99z"/>
  </g>
 </g>
</svg>
